# xmcd
# 
# Track frame offsets:
#     150
#     5609
#     27007
#     46770
#     64234
#     94233
#     118062
#     137633
#     156886
#     176335
#     195815
#     217865
#     237913
# 
# Disc length: 3367
# 
# Revision: 1
# Processed by: cddbd v1.5.2PL0 Copyright (c) Steve Scherf et al.
# Submitted via: fre:ac v1.0.31
# 
DISCID=a00d250d
DTITLE=Blue October - Sway
DYEAR=2013
DGENRE=Rock/Pop
TTITLE0=Breathe, It's Over
TTITLE1=Sway
TTITLE2=Angels in Everything
TTITLE3=Bleed Out
TTITLE4=Debris
TTITLE5=Fear
TTITLE6=Things We Don't Know About
TTITLE7=Hard Candy
TTITLE8=Put It In
TTITLE9=Light You Up
TTITLE10=Things We Do At Night
TTITLE11=Not Broken Anymore
TTITLE12=To Be
EXTD=
EXTT0=
EXTT1=
EXTT2=
EXTT3=
EXTT4=
EXTT5=
EXTT6=
EXTT7=
EXTT8=
EXTT9=
EXTT10=
EXTT11=
EXTT12=
PLAYORDER=
